[2026-03-03T16:19:33.550Z] Pipeline started.
[2026-03-03T16:19:34.483Z] Downloading YouTube: https://youtube.com/shorts/-grO33ayfNc?si=iwdZpY4jfFGIqfJJ
[2026-03-03T16:19:39.651Z] YouTube download done.
[2026-03-03T16:19:40.072Z] Extracting audio...
[2026-03-03T16:19:41.346Z] Transcribing...
[2026-03-03T16:19:43.905Z] Translating with GPT-4o...
[2026-03-03T16:19:46.363Z] TTS seg 1/5: "Facebook ilk inşa ettiğim şey değildi."
[2026-03-03T16:19:46.365Z] ElevenLabs TTS seg 0: "Facebook ilk inşa ettiğim şey değildi."
[2026-03-03T16:19:47.841Z] Seg 0 done (38914 bytes) ✅
[2026-03-03T16:19:48.109Z] TTS seg 2/5: "Ayrıca sohbet sistemleri ve oyunlar, çal"
[2026-03-03T16:19:48.114Z] ElevenLabs TTS seg 1: "Ayrıca sohbet sistemleri ve oyunlar, çalışma araçl"
[2026-03-03T16:19:49.868Z] Seg 1 done (111639 bytes) ✅
[2026-03-03T16:19:50.243Z] TTS seg 3/5: "J.K. Rowling Harry Potter'ı yazıp yayınl"
[2026-03-03T16:19:50.248Z] ElevenLabs TTS seg 2: "J.K. Rowling Harry Potter'ı yazıp yayınlamadan önc"
[2026-03-03T16:19:51.596Z] Seg 2 done (68589 bytes) ✅
[2026-03-03T16:19:52.078Z] TTS seg 4/5: "Hatta Beyonce Halo'yu elde etmek için yü"
[2026-03-03T16:19:52.082Z] ElevenLabs TTS seg 3: "Hatta Beyonce Halo'yu elde etmek için yüzlerce şar"
[2026-03-03T16:19:53.665Z] Seg 3 done (75276 bytes) ✅
[2026-03-03T16:19:54.033Z] TTS seg 5/5: "En büyük başarılar hata yapma özgürlüğün"
[2026-03-03T16:19:54.036Z] ElevenLabs TTS seg 4: "En büyük başarılar hata yapma özgürlüğüne sahip ol"
[2026-03-03T16:19:55.462Z] Seg 4 done (63573 bytes) ✅
[2026-03-03T16:19:55.800Z] Running FFmpeg: C:\Users\fullm\Downloads\dubverse-saas\backend\node_modules\ffmpeg-static\ffmpeg.exe -i C:\Users\fullm\Downloads\dubverse-saas\tmp\uploads\4cc2941d-8760-4a5a-878a-2bc52d792ead\audio.mp3 -i C:\Users\fullm\Downloads\dubverse-saas\tmp\uploads\4cc2941d-8760-4a5a-878a-2bc52d792ead\segments\seg_0.mp3 -i C:\Users\fullm\Downloads\dubverse-saas\tmp\uploads\4cc2941d-8760-4a5a-878a-2bc52d792ead\segments\seg_1.mp3 -i C:\Users\fullm\Downloads\dubverse-saas\tmp\uploads\4cc2941d-8760-4a5a-878a-2bc52d792ead\segments\seg_2.mp3 -i C:\Users\fullm\Downloads\dubverse-saas\tmp\uploads\4cc2941d-8760-4a5a-878a-2bc52d792ead\segments\seg_3.mp3 -i C:\Users\fullm\Downloads\dubverse-saas\tmp\uploads\4cc2941d-8760-4a5a-878a-2bc52d792ead\segments\seg_4.mp3 -filter_complex [1:a]aformat=sample_rates=44100:channel_layouts=stereo,adelay=0|0[s0];[2:a]aformat=sample_rates=44100:channel_layouts=stereo,adelay=2500|2500[s1];[3:a]aformat=sample_rates=44100:channel_layouts=stereo,adelay=8340|8340[s2];[4:a]aformat=sample_rates=44100:channel_layouts=stereo,adelay=14880|14880[s3];[5:a]aformat=sample_rates=44100:channel_layouts=stereo,adelay=20340|20340[s4];[0:a]aformat=sample_rates=44100:channel_layouts=stereo,volume=0.12[bg];[bg][s0][s1][s2][s3][s4]amix=inputs=6:duration=first:dropout_transition=2,volume=6[mixed];[mixed]loudnorm=I=-23:TP=-1.5:LRA=11[out] -map [out] -acodec libmp3lame -ar 44100 -b:a 192k -y C:\Users\fullm\Downloads\dubverse-saas\tmp\uploads\4cc2941d-8760-4a5a-878a-2bc52d792ead\dubbed_audio.mp3
[2026-03-03T16:19:56.127Z] FFmpeg Err: Input #0, mp3, from 'C:\Users\fullm\Downloads\dubverse-saas\tmp\uploads\4cc2941d-8760-4a5a-878a-2bc52d792ead\audio.mp3':
  Metadata:
    major_brand     : mp42
    minor_version   : 0
    compatible_brands: isommp42
    encoder         : Lavf60.16.100
  Duration: 00:00:25.73, start: 0.025057, bitrate: 128 kb/s
  Stream #0:0: Audio: mp3, 44100 Hz, stereo, fltp, 128 kb/s
    Metadata:
      encoder         : Lavc60.31

[2026-03-03T16:19:56.132Z] FFmpeg Err: Input #1, mp3, from 'C:\Users\fullm\Downloads\dubverse-saas\tmp\uploads\4cc2941d-8760-4a5a-878a-2bc52d792ead\segments\seg_0.mp3':
  Metadata:
    encoder         : Lavf60.16.100
  Duration: 00:00:02.40, start: 0.025057, bitrate: 64 kb/s
  Stream #1:0: Audio: mp3, 44100 Hz, mono, fltp, 64 kb/s
Input #2, mp3, from 'C:\Users\fullm\Downloads\dubverse-saas\tmp\uploads\4cc2941d-8760-4a5a-878a-2bc52d792ead\segments\seg_1.mp3':
  Metadata:
    encoder         : Lavf60.16.100
  Duration: 00:00:06.95, start: 0.025057, bitrate: 64 kb/s
  Stream #2:0: Audio: mp3, 44100 Hz, mono, fltp, 64 kb/s

[2026-03-03T16:19:56.140Z] FFmpeg Err: Input #3, mp3, from 'C:\Users\fullm\Downloads\dubverse-saas\tmp\uploads\4cc2941d-8760-4a5a-878a-2bc52d792ead\segments\seg_2.mp3':
  Metadata:
    encoder         : Lavf60.16.100
  Duration: 00:00:04.26, start: 0.025057, bitrate: 64 kb/s
  Stream #3:0: Audio: mp3, 44100 Hz, mono, fltp, 64 kb/s
Input #4, mp3, from 'C:\Users\fullm\Downloads\dubverse-saas\tmp\uploads\4cc2941d-8760-4a5a-878a-2bc52d792ead\segments\seg_3.mp3':
  Metadata:
    encoder         : Lavf60.16.100
  Duration: 00:00:04.68, start: 0.025057, bitrate: 64 kb/s
  Stream #4:0: Audio: mp3, 44100 Hz, mono, fltp, 64 kb/s
Input #5, mp3, from 'C:\Users\fullm\Downloads\dubverse-saas\tmp\uploads\4cc2941d-8760-4a5a-878a-2bc52d792ead\segments\seg_4.mp3':
  Metadata:
    encoder         : Lavf60.16.100
  Duration: 00:00:03.94, start: 0.025057, bitrate: 64 kb/s
  Stream #5:0: Audio: mp3, 44100 Hz, mono, fltp, 64 kb/s

[2026-03-03T16:19:56.146Z] FFmpeg Err: Stream mapping:
  Stream #0:0 (mp3float) -> aformat:default
  Stream #1:0 (mp3float) -> aformat:default
  Stream #2:0 (mp3float) -> aformat:default
  Stream #3:0 (mp3float) -> aformat:default
  Stream #4:0 (mp3float) -> aformat:default
  Stream #5:0 (mp3float) -> aformat:default
  loudnorm:default -> Stream #0:0 (libmp3lame)

[2026-03-03T16:19:56.317Z] FFmpeg Err: Output #0, mp3, to 'C:\Users\fullm\Downloads\dubverse-saas\tmp\uploads\4cc2941d-8760-4a5a-878a-2bc52d792ead\dubbed_audio.mp3':
  Metadata:
    major_brand     : mp42
    minor_version   : 0
    compatible_brands: isommp42
    TSSE            : Lavf60.16.100
  Stream #0:0: Audio: mp3, 44100 Hz, stereo, fltp, 192 kb/s
    Metadata:
      encoder         : Lavc60.31.102 libmp3lame

[2026-03-03T16:19:56.321Z] FFmpeg Err: size=       0kB time=-00:00:00.02 bitrate=  -0.0kbits/s speed=N/A    
[2026-03-03T16:19:56.774Z] FFmpeg Err: size=     156kB time=00:00:06.58 bitrate= 193.7kbits/s speed=10.4x    
[2026-03-03T16:19:57.274Z] FFmpeg Err: size=     256kB time=00:00:12.87 bitrate= 162.8kbits/s speed=11.4x    
[2026-03-03T16:19:57.774Z] FFmpeg Err: size=     256kB time=00:00:19.77 bitrate= 106.0kbits/s speed=12.1x    
[2026-03-03T16:19:58.091Z] FFmpeg Err: [out#0/mp3 @ 00000237f89f6480] video:0kB audio:603kB subtitle:0kB other streams:0kB global headers:0kB muxing overhead: 0.123718%
size=     604kB time=00:00:25.69 bitrate= 192.5kbits/s speed=13.2x    

[2026-03-03T16:19:58.508Z] Muxing final video...
[2026-03-03T16:19:58.513Z] Running FFmpeg: C:\Users\fullm\Downloads\dubverse-saas\backend\node_modules\ffmpeg-static\ffmpeg.exe -i C:\Users\fullm\Downloads\dubverse-saas\tmp\uploads\4cc2941d-8760-4a5a-878a-2bc52d792ead\video.mp4 -i C:\Users\fullm\Downloads\dubverse-saas\tmp\uploads\4cc2941d-8760-4a5a-878a-2bc52d792ead\dubbed_audio.mp3 -map 0:v:0 -map 1:a:0 -c:v copy -c:a aac -b:a 192k -shortest -y C:\Users\fullm\Downloads\dubverse-saas\tmp\uploads\4cc2941d-8760-4a5a-878a-2bc52d792ead\final_dubbed.mp4
[2026-03-03T16:19:58.656Z] FFmpeg Err: Input #0, mov,mp4,m4a,3gp,3g2,mj2, from 'C:\Users\fullm\Downloads\dubverse-saas\tmp\uploads\4cc2941d-8760-4a5a-878a-2bc52d792ead\video.mp4':
  Metadata:
    major_brand     : mp42
    minor_version   : 0
    compatible_brands: isommp42
    creation_time   : 2023-10-04T09:42:15.000000Z
  Duration: 00:00:25.68, start: 0.000000, bitrate: 365 kb/s
  Stream #0:0[0x1](und): Video: h264 (Main) (avc1 / 0x31637661), yuv420p(tv, bt709, progressive), 360x640 [SAR 1:1 DAR 9:16], 233 kb/s, 25 fps, 25 tbr, 12800 tbn (default)
    Metadata:
      creation_time   : 2023-10-04T09:42:15.000000Z
      handler_name    : ISO Media file produced by Google Inc. Created on: 10/04/2023.
      vendor_id       : [0][0][0][0]
  Stream #0:1[0x2](eng): Audio: aac (LC) (mp4a / 0x6134706D), 44100 Hz, stereo, fltp, 128 kb/s (default)
    Metadata:
      creation_time   : 2023-10-04T09:42:15.000000Z
      handler_name    : ISO Media file produced by Google Inc. Created on: 10/04/2023.
      vendor_id       : [0][0][0][0]

[2026-03-03T16:19:58.661Z] FFmpeg Err: Input #1, mp3, from 'C:\Users\fullm\Downloads\dubverse-saas\tmp\uploads\4cc2941d-8760-4a5a-878a-2bc52d792ead\dubbed_audio.mp3':
  Metadata:
    major_brand     : mp42
    minor_version   : 0
    compatible_brands: isommp42
    encoder         : Lavf60.16.100
  Duration: 00:00:25.73, start: 0.025057, bitrate: 192 kb/s
  Stream #1:0: Audio: mp3, 44100 Hz, stereo, fltp, 192 kb/s
    Metadata:
      encoder         : Lavc60.31
Stream mapping:
  Stream #0:0 -> #0:0 (copy)
  Stream #1:0 -> #0:1 (mp3 (mp3float) -> aac (native))

[2026-03-03T16:19:58.673Z] FFmpeg Err: Output #0, mp4, to 'C:\Users\fullm\Downloads\dubverse-saas\tmp\uploads\4cc2941d-8760-4a5a-878a-2bc52d792ead\final_dubbed.mp4':
  Metadata:
    major_brand     : mp42
    minor_version   : 0
    compatible_brands: isommp42
    encoder         : Lavf60.16.100
  Stream #0:0(und): Video: h264 (Main) (avc1 / 0x31637661), yuv420p(tv, bt709, progressive), 360x640 [SAR 1:1 DAR 9:16], q=2-31, 233 kb/s, 25 fps, 25 tbr, 12800 tbn
[2026-03-03T16:19:58.678Z] FFmpeg Err:  (default)
    Metadata:
      creation_time   : 2023-10-04T09:42:15.000000Z
      handler_name    : ISO Media file produced by Google Inc. Created on: 10/04/2023.
      vendor_id       : [0][0][0][0]
  Stream #0:1: Audio: aac (LC) (mp4a / 0x6134706D), 44100 Hz, stereo, fltp, 192 kb/s
    Metadata:
      encoder         : Lavc60.31.102 aac
size=       0kB time=N/A bitrate=N/A speed=N/A    
[2026-03-03T16:19:59.159Z] FFmpeg Err: size=     256kB time=00:00:07.56 bitrate= 277.5kbits/s speed=15.1x    
[2026-03-03T16:19:59.662Z] FFmpeg Err: size=     768kB time=00:00:15.20 bitrate= 413.9kbits/s speed=15.1x    
[2026-03-03T16:20:00.164Z] FFmpeg Err: size=    1024kB time=00:00:20.56 bitrate= 408.0kbits/s speed=13.7x    
[2026-03-03T16:20:00.603Z] FFmpeg Err: [out#0/mp4 @ 000001ff4fd7ee40] video:733kB audio:611kB subtitle:0kB other streams:0kB global headers:0kB muxing overhead: 1.588673%
size=    1365kB time=00:00:25.65 bitrate= 435.8kbits/s speed=13.2x    

[2026-03-03T16:20:00.608Z] FFmpeg Err: [aac @ 000001ff4fd7cfc0] Qavg: 732.356

[2026-03-03T16:20:01.005Z] ✅ Pipeline finished successfully!
